<?xml version="1.0" encoding="utf-8"?>
<!-- Generator: Adobe Illustrator 27.0.0, SVG Export Plug-In . SVG Version: 6.00 Build 0)  -->
<svg version="1.1" id="Layer_1" xmlns="http://www.w3.org/2000/svg" xmlns:xlink="http://www.w3.org/1999/xlink" x="0px" y="0px"
	 viewBox="0 0 274.7 74.5" style="enable-background:new 0 0 274.7 74.5;" xml:space="preserve">
<style type="text/css">
	.st0{display:none;}
	.st1{display:inline;fill:#15A6DF;}
	.st2{display:none;fill:none;stroke:#EC008C;stroke-width:0.25;stroke-miterlimit:10;}
	.st3{display:none;fill:none;stroke:#15A6DF;stroke-width:0.25;stroke-miterlimit:10;}
	.st4{fill:#15A6DF;}
	.st5{fill:#1F4490;}
</style>
<g class="st0">
	<path class="st1" d="M75.5,58.7h1.8l3.2,5.3l0,0l3.1-5.3h1.8l-4.3,6.8V71h-1.5v-5.5L75.5,58.7z"/>
	<path class="st1" d="M84.6,66.8c0-2.4,1.8-4.3,4.3-4.3s4.3,1.8,4.3,4.3c0,2.6-1.8,4.3-4.3,4.3S84.6,69.2,84.6,66.8z M91.9,66.8
		c0-1.8-1.3-3-3-3c-1.8,0-3,1.4-3,3c0,1.7,1.2,3,3,3C90.7,69.9,91.9,68.6,91.9,66.8z"/>
	<path class="st1" d="M95.2,67.6v-5h1.4v4.6c0,1.9,0.7,2.7,2,2.7c1.4,0,2.5-1.2,2.5-3.1v-4.1h1.4v8.4h-1.4v-1.5l0,0
		c-0.6,1-1.7,1.6-2.8,1.6C96.4,71.1,95.2,70,95.2,67.6z"/>
	<path class="st1" d="M106.4,62.6v1.6l0,0c0.6-1,1.6-1.7,2.8-1.7c0.1,0,0.2,0,0.4,0v1.6c-0.2,0-0.5,0-0.6,0c-1.6,0-2.6,1.2-2.6,3
		v4.1H105v-8.4L106.4,62.6L106.4,62.6z"/>
	<path class="st1" d="M116.8,62.6v1.5l0,0c0.6-1,1.8-1.6,3-1.6c2.4,0,4.2,1.8,4.2,4.4s-1.8,4.3-4.2,4.3c-1.3,0-2.4-0.6-3-1.6l0,0
		v4.9h-1.4V62.6H116.8z M122.5,66.8c0-1.8-1.3-3.1-2.9-3.1c-1.8,0-2.9,1.4-2.9,3.1c0,1.8,1.3,3,2.9,3
		C121.3,69.9,122.5,68.6,122.5,66.8z"/>
	<path class="st1" d="M127.3,62.6v1.6l0,0c0.6-1,1.6-1.7,2.8-1.7c0.1,0,0.2,0,0.4,0v1.6c-0.2,0-0.5,0-0.6,0c-1.6,0-2.6,1.2-2.6,3
		v4.1h-1.4v-8.4L127.3,62.6L127.3,62.6z"/>
	<path class="st1" d="M131.7,60c0-0.6,0.5-1,1-1c0.6,0,1,0.5,1,1s-0.5,1-1,1C132.1,61,131.7,60.5,131.7,60z M133.3,62.6V71h-1.4
		v-8.4H133.3z"/>
	<path class="st1" d="M136.6,62.6l2.6,6.7l0,0l2.6-6.7h1.5l-3.4,8.4h-1.4l-3.4-8.4C135.1,62.6,136.6,62.6,136.6,62.6z"/>
	<path class="st1" d="M143.8,66.8c0-2.5,1.8-4.4,4.2-4.4c1.3,0,2.3,0.6,3,1.6l0,0v-1.5h1.4v8.4H151v-1.6l0,0c-0.6,1-1.7,1.7-3,1.7
		C145.5,71.1,143.8,69.4,143.8,66.8z M150.9,66.8c0-1.8-1.2-3.1-2.9-3.1c-1.6,0-2.9,1.2-2.9,3.1c0,1.7,1.2,3,2.9,3
		C149.7,69.9,150.9,68.7,150.9,66.8z"/>
	<path class="st1" d="M154.1,66.8c0-2.6,1.8-4.3,4.3-4.3c1.3,0,2.6,0.6,3.4,1.5l-0.9,0.8c-0.6-0.6-1.4-1.1-2.4-1.1
		c-1.8,0-2.9,1.3-2.9,3c0,1.8,1.2,3,2.9,3c1,0,1.8-0.5,2.4-1.1l1,0.9c-0.7,0.8-1.8,1.5-3.5,1.5C155.9,71.1,154.1,69.3,154.1,66.8z"
		/>
	<path class="st1" d="M162.5,62.6h1.6l2.8,6.5l0,0l2.6-6.5h1.5l-4.8,11.9h-1.5l1.5-3.8L162.5,62.6z"/>
	<path class="st1" d="M173.3,69.1l-1,4.2h-1l0.6-4.2H173.3z"/>
	<path class="st1" d="M180.9,58.7l3,9.9l0,0l2.8-9.9h1.7l2.8,9.9l0,0l3-9.9h1.6l-4,12.3h-1.5l-2.9-10.2l0,0L184.5,71H183l-3.9-12.3
		H180.9z"/>
	<path class="st1" d="M204,67.2h-6.6c0.2,1.6,1.3,2.6,2.9,2.6c1.1,0,1.9-0.5,2.4-1.1l1,0.8c-0.7,0.9-1.8,1.6-3.5,1.6
		c-2.5,0-4.3-1.8-4.3-4.3c0-2.6,1.8-4.3,4.2-4.3c2.3,0,3.9,1.8,3.9,4.2C204,66.8,204,67.1,204,67.2z M197.5,66.1h5.2
		c-0.2-1.4-1.1-2.3-2.5-2.3S197.6,64.6,197.5,66.1z"/>
	<path class="st1" d="M209.8,69.9l0.7-1.1c0.6,0.6,1.4,1,2.6,1c1,0,1.6-0.5,1.6-1.1c0-0.7-0.7-0.9-2-1.4c-1.4-0.5-2.5-1-2.5-2.6
		c0-1.3,1.2-2.3,2.8-2.3c1,0,1.9,0.3,3,1l-0.7,1.1c-0.7-0.6-1.5-0.9-2.2-0.9c-0.6,0-1.3,0.4-1.3,1s0.6,1,1.6,1.3c1.8,0.7,3,1,3,2.7
		c0,1.3-1,2.4-3,2.4C211.6,71.1,210.5,70.6,209.8,69.9z"/>
	<path class="st1" d="M225.4,67.2h-6.6c0.2,1.6,1.3,2.6,2.9,2.6c1.1,0,1.9-0.5,2.4-1.1l1,0.8c-0.7,0.9-1.8,1.6-3.5,1.6
		c-2.5,0-4.3-1.8-4.3-4.3c0-2.6,1.8-4.3,4.2-4.3c2.3,0,3.9,1.8,3.9,4.2C225.4,66.8,225.4,67.1,225.4,67.2z M218.8,66.1h5.2
		c-0.2-1.4-1.1-2.3-2.5-2.3S219.1,64.6,218.8,66.1z"/>
	<path class="st1" d="M226.8,66.8c0-2.6,1.8-4.3,4.3-4.3c1.3,0,2.6,0.6,3.4,1.5l-0.9,0.8c-0.6-0.6-1.4-1.1-2.4-1.1
		c-1.8,0-2.9,1.3-2.9,3c0,1.8,1.2,3,2.9,3c1,0,1.8-0.5,2.4-1.1l1,0.9c-0.7,0.8-1.8,1.5-3.5,1.5C228.5,71.1,226.8,69.3,226.8,66.8z"
		/>
	<path class="st1" d="M236,67.6v-5h1.4v4.6c0,1.9,0.7,2.7,2,2.7c1.4,0,2.5-1.2,2.5-3.1v-4.1h1.4v8.4h-1.4v-1.5l0,0
		c-0.6,1-1.7,1.6-2.8,1.6C237.2,71.1,236,70,236,67.6z"/>
	<path class="st1" d="M247.2,62.6v1.6l0,0c0.6-1,1.6-1.7,2.8-1.7c0.1,0,0.2,0,0.4,0v1.6c-0.2,0-0.5,0-0.6,0c-1.6,0-2.6,1.2-2.6,3
		v4.1h-1.4v-8.4L247.2,62.6L247.2,62.6z"/>
	<path class="st1" d="M258.9,67.2h-6.6c0.2,1.6,1.3,2.6,2.9,2.6c1.1,0,1.9-0.5,2.4-1.1l1,0.8c-0.7,0.9-1.8,1.6-3.5,1.6
		c-2.5,0-4.3-1.8-4.3-4.3c0-2.6,1.8-4.3,4.2-4.3c2.3,0,3.9,1.8,3.9,4.2C258.9,66.8,258.9,67.1,258.9,67.2z M252.3,66.1h5.2
		c-0.2-1.4-1.1-2.3-2.5-2.3S252.6,64.6,252.3,66.1z"/>
</g>
<line class="st2" x1="13.6" y1="57" x2="17.4" y2="61.9"/>
<line class="st2" x1="20.2" y1="53.4" x2="24.1" y2="58.3"/>
<path class="st3" d="M50.5,10.5c0,0-1,28.8-42.3,38.8"/>
<path class="st4" d="M106,33.1c0,9.6-6.9,15.8-15.4,15.8c-5.3,0-9.5-2.5-11.9-6.3h-0.1v6h-3.4V0.9h3.4v22.4h0.1
	c2.6-4.1,7-6.5,11.9-6.5C99.7,16.8,106,23.9,106,33.1z M102.5,33.1c0-8-5.5-13.1-12.2-13.1c-6.9,0-11.8,5.8-11.8,13.1
	c0,7.4,5.5,12.5,11.9,12.5C97.5,45.6,102.5,40.2,102.5,33.1z"/>
<path class="st5" d="M113.1,7.6c0-1.6,1.2-2.8,2.9-2.8c1.6,0,2.8,1.2,2.8,2.8s-1.2,2.8-2.8,2.8C114.3,10.4,113.1,9.2,113.1,7.6z"/>
<rect x="114.2" y="17.1" class="st4" width="3.4" height="31.5"/>
<path class="st4" d="M128.4,39.7V20.3h-4.2v-3.2h4.1v-11l3.4-0.4v11.4h11.5v3.2h-11.5v18.6c0,4.3,0.8,6.7,4.6,6.7c2.4,0,4.6-1,6-1.8
	l0.8,3.1c-1.6,0.9-3.8,2-7.2,2C130.3,48.9,128.4,45.4,128.4,39.7z"/>
<path class="st5" d="M147.8,32.8c0-9.7,6.9-16.3,16.6-16.3c5.1,0,10.2,2,13.4,6l-5.7,4.9c-1.7-1.9-4.1-3.4-7.4-3.4
	c-5.1,0-8.4,3.6-8.4,8.7c0,5.2,3.5,8.8,8.5,8.8c3.4,0,5.9-1.6,7.4-3.2l5.8,5.1c-2.7,3.2-7.6,5.7-13.9,5.7
	C154.7,49.1,147.8,42.5,147.8,32.8z"/>
<path class="st5" d="M214.3,16.9v31.7h-8v-3.8h-0.2c-2.1,2.8-5.4,4.3-9.5,4.3c-8.7,0-15.1-6.5-15.1-16.3c0-9.6,6.4-16.4,14.9-16.4
	c3.8,0,7,1.4,9.3,4.1h0.2v-3.6H214.3z M206.2,32.9c0-5.1-3.4-8.9-8-8.9c-4.5,0-8.2,3.4-8.2,8.9c0,5.1,3.4,8.6,8.1,8.6
	C202.5,41.5,206.2,38.1,206.2,32.9z"/>
<path class="st5" d="M240.7,16.5v9.2c-0.8-0.1-1.7-0.1-2.2-0.1c-5.2,0-8.1,3.6-8.1,8.2v14.8h-8.5V16.9h8.5v4.7h0.1
	c2.4-3.4,5.8-5.2,9.6-5.2C240.3,16.4,240.5,16.4,240.7,16.5z"/>
<path class="st5" d="M274,35.5h-22.2c1,3.8,4,6.1,8.1,6.1c3.4,0.1,5.8-1.4,7.6-3.6l5.5,5.1c-2.7,3.4-7.3,6-13.7,6
	c-9.3,0-16.3-6.5-16.3-16.4c0-9.6,6.7-16.3,15.7-16.3c9.3,0,15.5,6.7,15.5,16C274.2,33.5,274.2,35,274,35.5z M251.9,29.4h13.9
	c-0.8-3.3-3.1-5.5-6.8-5.5C255.6,23.9,252.9,25.8,251.9,29.4z"/>
<g>
	<path class="st4" d="M32.2,0c0,0-10.8,13.4-31.9,12.8c0,0,0.2,23.5,5.2,30.6c0,0,36.3-9.1,39-34.7C44.6,8.6,33.9,2.4,32.2,0z"/>
	<path class="st5" d="M8.2,49.3c0,0,28.8-5,39.1-27.7c0,0-2,26.3-33.7,35.4C13.6,57,10.4,54.1,8.2,49.3z"/>
	<path class="st4" d="M50.5,10.5c0,0,5.5,2.5,13.5,2.3c0,0,4.2,41.9-32.1,59.7c0,0-8.7-5.1-14.4-10.6c0,0,6.3-2.3,6.8-2.6
		c0,0,5.9,5,8,5.3c0,0,23.8-12.2,24.8-45.1l-7.9-2.1C49.1,17.4,50.5,11.9,50.5,10.5z"/>
</g>
<g>
	<path class="st4" d="M74,56.4h1.9l3.4,5.7l0,0l3.3-5.7h1.9L80,63.8v5.9h-1.6v-5.9L74,56.4z"/>
	<path class="st4" d="M83.9,65.1c0-2.6,1.9-4.7,4.7-4.7c2.7,0,4.7,1.9,4.7,4.7c0,2.8-2,4.7-4.7,4.7C85.8,69.7,83.9,67.7,83.9,65.1z
		 M91.8,65.1c0-2-1.3-3.2-3.1-3.2c-1.9,0-3.1,1.4-3.1,3.2s1.3,3.2,3.1,3.2C90.4,68.3,91.8,67,91.8,65.1z"/>
	<path class="st4" d="M95.4,65.9v-5.3h1.4v4.9c0,2.1,0.8,2.9,2.2,2.9c1.4,0,2.7-1.3,2.7-3.3v-4.3h1.4v9h-1.4v-1.6l0,0
		c-0.7,1.1-1.8,1.7-3,1.7C96.7,69.7,95.4,68.5,95.4,65.9z"/>
	<path class="st4" d="M107.5,60.6v1.7l0,0c0.7-1.1,1.7-1.8,3-1.8c0.1,0,0.2,0,0.4,0v1.7c-0.2,0-0.4,0-0.6,0c-1.7,0-2.8,1.3-2.8,3.1
		v4.3h-1.4v-9H107.5L107.5,60.6z"/>
	<path class="st4" d="M119.2,60.6v1.6l0,0c0.7-1.1,1.9-1.7,3.1-1.7c2.6,0,4.5,2,4.5,4.8c0,2.8-1.9,4.6-4.5,4.6
		c-1.3,0-2.6-0.6-3.1-1.7l0,0v5.2h-1.6V60.6H119.2z M125.2,65.1c0-2-1.3-3.3-3.1-3.3c-1.9,0-3.1,1.4-3.1,3.3c0,1.9,1.3,3.1,3.1,3.1
		C124,68.3,125.2,67,125.2,65.1z"/>
	<path class="st4" d="M130.5,60.6v1.7l0,0c0.7-1.1,1.7-1.8,3-1.8c0.1,0,0.2,0,0.4,0v1.7c-0.2,0-0.4,0-0.6,0c-1.7,0-2.8,1.3-2.8,3.1
		v4.3h-1.4v-9H130.5L130.5,60.6z"/>
	<path class="st4" d="M135.3,57.8c0-0.6,0.4-1.1,1.1-1.1c0.6,0,1.1,0.4,1.1,1.1s-0.4,1.1-1.1,1.1C135.9,58.9,135.3,58.4,135.3,57.8z
		 M137.1,60.6v9h-1.4v-9H137.1z"/>
	<path class="st4" d="M140.8,60.6l2.8,7.1l0,0l2.8-7.1h1.6l-3.7,9h-1.4l-3.7-9H140.8z"/>
	<path class="st4" d="M148.7,65.1c0-2.7,1.9-4.8,4.5-4.8c1.3,0,2.4,0.6,3.1,1.7l0,0v-1.6h1.4v9h-1.4v-1.7l0,0
		c-0.7,1.1-1.8,1.8-3.2,1.8C150.5,69.7,148.7,67.9,148.7,65.1z M156.3,65.1c0-1.9-1.3-3.3-3.1-3.3c-1.7,0-3.1,1.3-3.1,3.3
		c0,1.8,1.3,3.1,3.1,3.1C154.9,68.3,156.3,67.1,156.3,65.1z"/>
	<path class="st4" d="M159.8,65.1c0-2.8,1.9-4.7,4.6-4.7c1.3,0,2.8,0.6,3.7,1.6l-1,0.9c-0.6-0.7-1.4-1.2-2.6-1.2
		c-1.9,0-3.1,1.3-3.1,3.2c0,2,1.3,3.2,3.1,3.2c1.1,0,2-0.4,2.6-1.2l1.1,1c-0.8,0.9-2,1.6-3.8,1.6C161.7,69.7,159.8,67.8,159.8,65.1z
		"/>
	<path class="st4" d="M169.1,60.6h1.7l3,6.9l0,0l2.8-6.9h1.6L173,73.4h-1.6l1.6-4L169.1,60.6z"/>
	<path class="st4" d="M180.8,67.6l-1.1,4.5h-1.1l0.6-4.5H180.8z"/>
	<path class="st4" d="M189.3,56.4l3.2,10.6l0,0l3-10.6h1.8l3,10.6l0,0l3.2-10.6h1.7l-4.2,13.1h-1.6l-3.1-10.9l0,0l-3.1,10.9h-1.6
		l-4.1-13.1H189.3z"/>
	<path class="st4" d="M214.2,65.6h-7.1c0.2,1.7,1.3,2.8,3.1,2.8c1.2,0,2.1-0.4,2.6-1.2l1.1,0.9c-0.8,1-1.9,1.7-3.8,1.7
		c-2.7,0-4.6-1.9-4.6-4.7c0-2.8,1.9-4.7,4.5-4.7c2.4,0,4.1,1.9,4.1,4.5C214.2,65.1,214.2,65.5,214.2,65.6z M207.2,64.3h5.6
		c-0.2-1.4-1.2-2.4-2.7-2.4S207.5,62.8,207.2,64.3z"/>
	<path class="st4" d="M220.7,68.3l0.8-1.2c0.7,0.7,1.4,1.1,2.8,1.1c1.1,0,1.7-0.4,1.7-1.2s-0.8-1-2.2-1.4c-1.4-0.4-2.7-1.1-2.7-2.8
		c0-1.3,1.3-2.4,3-2.4c1.1,0,2.1,0.3,3.1,1.1l-0.8,1.2c-0.8-0.7-1.6-1-2.3-1c-0.7,0-1.3,0.4-1.3,1.1s0.7,1.1,1.7,1.3
		c1.9,0.8,3.1,1.1,3.1,2.9c0,1.3-1.1,2.6-3.2,2.6C222.6,69.7,221.5,69.1,220.7,68.3z"/>
	<path class="st4" d="M237.5,65.6h-7c0.2,1.7,1.3,2.8,3.1,2.8c1.2,0,2.1-0.4,2.6-1.2l1.1,0.9c-0.8,1-1.9,1.7-3.8,1.7
		c-2.7,0-4.6-1.9-4.6-4.7c0-2.8,1.9-4.7,4.5-4.7c2.4,0,4.1,1.9,4.1,4.5C237.5,65.1,237.5,65.5,237.5,65.6z M230.5,64.3h5.6
		c-0.2-1.4-1.2-2.4-2.7-2.4C232,61.9,230.8,62.8,230.5,64.3z"/>
	<path class="st4" d="M239.3,65.1c0-2.8,1.9-4.7,4.6-4.7c1.3,0,2.8,0.6,3.7,1.6l-1,0.9c-0.6-0.7-1.4-1.2-2.6-1.2
		c-1.9,0-3.1,1.3-3.1,3.2c0,2,1.3,3.2,3.1,3.2c1.1,0,2-0.4,2.6-1.2l1.1,1c-0.8,0.9-2,1.6-3.8,1.6C241.1,69.7,239.3,67.8,239.3,65.1z
		"/>
	<path class="st4" d="M249.2,65.9v-5.3h1.4v4.9c0,2.1,0.8,2.9,2.2,2.9s2.7-1.3,2.7-3.3v-4.3h1.4v9h-1.4v-1.6l0,0
		c-0.7,1.1-1.8,1.7-3,1.7C250.7,69.7,249.2,68.5,249.2,65.9z"/>
	<path class="st4" d="M261.4,60.6v1.7l0,0c0.7-1.1,1.7-1.8,3-1.8c0.1,0,0.2,0,0.4,0v1.7c-0.2,0-0.4,0-0.6,0c-1.7,0-2.8,1.3-2.8,3.1
		v4.3H260v-9H261.4L261.4,60.6z"/>
	<path class="st4" d="M274.2,65.6h-7c0.2,1.7,1.3,2.8,3.1,2.8c1.2,0,2.1-0.4,2.6-1.2l1.1,0.9c-0.8,1-1.9,1.7-3.8,1.7
		c-2.7,0-4.6-1.9-4.6-4.7c0-2.8,1.9-4.7,4.5-4.7c2.4,0,4.1,1.9,4.1,4.5C274.3,65.1,274.2,65.5,274.2,65.6z M267.1,64.3h5.6
		c-0.2-1.4-1.2-2.4-2.7-2.4C268.6,61.9,267.5,62.8,267.1,64.3z"/>
</g>
</svg>
